<svg width="25" height="25" viewBox="0 0 25 25" fill="none" xmlns="http://www.w3.org/2000/svg">
<path d="M19.333 2C21.293 2 22.893 3.537 22.995 5.472L23 5.667V18.333C23 20.293 21.463 21.893 19.528 21.995L19.333 22H6.667C5.72818 22 4.82509 21.64 4.1438 20.9941C3.46252 20.3481 3.05492 19.4655 3.005 18.528L3 18.333V5.667C3 3.707 4.537 2.107 6.472 2.005L6.667 2H19.333ZM15.5 13C15.1022 13 14.7206 13.158 14.4393 13.4393C14.158 13.7206 14 14.1022 14 14.5C14 14.8978 14.158 15.2794 14.4393 15.5607C14.7206 15.842 15.1022 16 15.5 16C15.8978 16 16.2794 15.842 16.5607 15.5607C16.842 15.2794 17 14.8978 17 14.5C17 14.1022 16.842 13.7206 16.5607 13.4393C16.2794 13.158 15.8978 13 15.5 13ZM10.5 8C10.1022 8 9.72064 8.15803 9.43934 8.43934C9.15803 8.72064 9 9.10217 9 9.5C9 9.89782 9.15803 10.2794 9.43934 10.5607C9.72064 10.842 10.1022 11 10.5 11C10.8978 11 11.2794 10.842 11.5607 10.5607C11.842 10.2794 12 9.89782 12 9.5C12 9.10217 11.842 8.72064 11.5607 8.43934C11.2794 8.15803 10.8978 8 10.5 8Z" fill="white"/>
</svg>
