<svg width="26" height="26" viewBox="0 0 26 26" fill="none" xmlns="http://www.w3.org/2000/svg">
<path d="M18.2 13.325C18.2 12.894 18.3712 12.4807 18.6759 12.176C18.9806 11.8712 19.394 11.7 19.825 11.7C20.2559 11.7 20.6693 11.8712 20.974 12.176C21.2787 12.4807 21.45 12.894 21.45 13.325C21.45 13.756 21.2787 14.1693 20.974 14.4741C20.6693 14.7788 20.2559 14.95 19.825 14.95C19.394 14.95 18.9806 14.7788 18.6759 14.4741C18.3712 14.1693 18.2 13.756 18.2 13.325ZM11.7 13.325C11.7 12.894 11.8712 12.4807 12.1759 12.176C12.4806 11.8712 12.894 11.7 13.325 11.7C13.7559 11.7 14.1693 11.8712 14.474 12.176C14.7787 12.4807 14.95 12.894 14.95 13.325C14.95 13.756 14.7787 14.1693 14.474 14.4741C14.1693 14.7788 13.7559 14.95 13.325 14.95C12.894 14.95 12.4806 14.7788 12.1759 14.4741C11.8712 14.1693 11.7 13.756 11.7 13.325ZM5.19995 13.325C5.19995 12.894 5.37116 12.4807 5.6759 12.176C5.98065 11.8712 6.39397 11.7 6.82495 11.7C7.25593 11.7 7.66925 11.8712 7.974 12.176C8.27875 12.4807 8.44995 12.894 8.44995 13.325C8.44995 13.756 8.27875 14.1693 7.974 14.4741C7.66925 14.7788 7.25593 14.95 6.82495 14.95C6.39397 14.95 5.98065 14.7788 5.6759 14.4741C5.37116 14.1693 5.19995 13.756 5.19995 13.325Z" fill="white"/>
</svg>
