<svg width="217" height="47" viewBox="0 0 217 47" fill="none" xmlns="http://www.w3.org/2000/svg">
  <path d="M15.085 6.57004V10.525H4.9V16.79H12.705V20.675H4.9V31H0V6.57004H15.085Z" fill="black" />
  <path d="M17.2996 21.235C17.2996 19.275 17.6846 17.5367 18.4546 16.02C19.2479 14.5034 20.3096 13.3367 21.6396 12.52C22.9929 11.7034 24.4979 11.295 26.1546 11.295C27.6012 11.295 28.8612 11.5867 29.9346 12.17C31.0312 12.7534 31.9062 13.4884 32.5596 14.375V11.61H37.4946V31H32.5596V28.165C31.9296 29.075 31.0546 29.8334 29.9346 30.44C28.8379 31.0234 27.5662 31.315 26.1196 31.315C24.4862 31.315 22.9929 30.895 21.6396 30.055C20.3096 29.215 19.2479 28.0367 18.4546 26.52C17.6846 24.98 17.2996 23.2184 17.2996 21.235ZM32.5596 21.305C32.5596 20.115 32.3262 19.1 31.8596 18.26C31.3929 17.3967 30.7629 16.7434 29.9696 16.3C29.1762 15.8334 28.3246 15.6 27.4146 15.6C26.5046 15.6 25.6646 15.8217 24.8946 16.265C24.1246 16.7084 23.4946 17.3617 23.0046 18.225C22.5379 19.065 22.3046 20.0684 22.3046 21.235C22.3046 22.4017 22.5379 23.4284 23.0046 24.315C23.4946 25.1784 24.1246 25.8434 24.8946 26.31C25.6879 26.7767 26.5279 27.01 27.4146 27.01C28.3246 27.01 29.1762 26.7884 29.9696 26.345C30.7629 25.8784 31.3929 25.225 31.8596 24.385C32.3262 23.5217 32.5596 22.495 32.5596 21.305Z" fill="black" />
  <path d="M53.0253 11.33C55.3353 11.33 57.2019 12.065 58.6253 13.535C60.0486 14.9817 60.7603 17.0117 60.7603 19.625V31H55.8603V20.29C55.8603 18.75 55.4753 17.5717 54.7053 16.755C53.9353 15.915 52.8853 15.495 51.5553 15.495C50.2019 15.495 49.1286 15.915 48.3353 16.755C47.5653 17.5717 47.1803 18.75 47.1803 20.29V31H42.2803V11.61H47.1803V14.025C47.8336 13.185 48.6619 12.5317 49.6653 12.065C50.6919 11.575 51.8119 11.33 53.0253 11.33Z" fill="black" />
  <path d="M82.3698 31.315C80.5031 31.315 78.8231 30.9067 77.3298 30.09C75.8364 29.25 74.6581 28.0717 73.7948 26.555C72.9548 25.0384 72.5348 23.2884 72.5348 21.305C72.5348 19.3217 72.9664 17.5717 73.8298 16.055C74.7164 14.5384 75.9181 13.3717 77.4348 12.555C78.9514 11.715 80.6431 11.295 82.5098 11.295C84.3764 11.295 86.0681 11.715 87.5848 12.555C89.1014 13.3717 90.2914 14.5384 91.1548 16.055C92.0414 17.5717 92.4848 19.3217 92.4848 21.305C92.4848 23.2884 92.0298 25.0384 91.1198 26.555C90.2331 28.0717 89.0198 29.25 87.4798 30.09C85.9631 30.9067 84.2598 31.315 82.3698 31.315ZM82.3698 27.045C83.2564 27.045 84.0848 26.835 84.8548 26.415C85.6481 25.9717 86.2781 25.3184 86.7448 24.455C87.2114 23.5917 87.4448 22.5417 87.4448 21.305C87.4448 19.4617 86.9548 18.05 85.9748 17.07C85.0181 16.0667 83.8398 15.565 82.4398 15.565C81.0398 15.565 79.8614 16.0667 78.9048 17.07C77.9714 18.05 77.5048 19.4617 77.5048 21.305C77.5048 23.1484 77.9598 24.5717 78.8698 25.575C79.8031 26.555 80.9698 27.045 82.3698 27.045Z" fill="black" />
  <path d="M104.969 15.635H101.574V31H96.6041V15.635H94.3991V11.61H96.6041V10.63C96.6041 8.25004 97.2808 6.50004 98.6341 5.38004C99.9874 4.26004 102.029 3.73504 104.759 3.80504V7.93504C103.569 7.91171 102.741 8.11004 102.274 8.53004C101.807 8.95004 101.574 9.70838 101.574 10.805V11.61H104.969V15.635Z" fill="black" />
  <path d="M131.779 12.275C133.063 9.21838 134.194 6.06838 135.174 2.82504C135.361 2.17171 135.629 1.67004 135.979 1.32004C136.353 0.970044 136.866 0.795044 137.519 0.795044C138.056 0.795044 138.464 0.958377 138.744 1.28504C139.024 1.58838 139.164 2.00838 139.164 2.54504C139.164 2.98838 138.978 3.78171 138.604 4.92504C138.231 6.04504 137.776 7.46838 137.239 9.19504C136.703 10.9217 136.166 12.9167 135.629 15.18C135.093 17.4434 134.638 19.9284 134.264 22.635C133.891 25.3417 133.704 28.235 133.704 31.315C133.704 32.155 133.541 32.8434 133.214 33.38C132.911 33.94 132.374 34.22 131.604 34.22C130.764 34.22 130.146 33.9284 129.749 33.345C129.376 32.7617 129.189 32.015 129.189 31.105C129.189 29.3084 129.248 27.815 129.364 26.625C129.504 25.4117 129.644 24.3734 129.784 23.51C128.641 25.47 127.428 27.1617 126.144 28.585C124.884 29.985 123.671 31.0584 122.504 31.805C121.338 32.575 120.334 32.96 119.494 32.96C118.118 32.96 116.998 32.575 116.134 31.805C115.271 31.035 114.839 29.8684 114.839 28.305C114.839 27.0917 115.131 25.8434 115.714 24.56C116.298 23.2534 117.068 21.97 118.024 20.71C118.981 19.45 120.031 18.2717 121.174 17.175C122.341 16.055 123.508 15.075 124.674 14.235C125.841 13.3717 126.926 12.695 127.929 12.205C128.933 11.715 129.749 11.47 130.379 11.47C131.079 11.47 131.546 11.7384 131.779 12.275ZM130.974 14.165C130.834 14.2584 130.683 14.3517 130.519 14.445C130.379 14.515 130.239 14.5967 130.099 14.69C129.213 15.25 128.268 15.9267 127.264 16.72C126.261 17.49 125.269 18.3534 124.289 19.31C123.309 20.2434 122.411 21.2234 121.594 22.25C120.801 23.2534 120.159 24.2567 119.669 25.26C119.203 26.24 118.969 27.185 118.969 28.095C118.969 28.2584 119.039 28.375 119.179 28.445C119.319 28.515 119.448 28.55 119.564 28.55C120.381 28.55 121.256 28.1884 122.189 27.465C123.146 26.7417 124.114 25.7384 125.094 24.455C126.098 23.1484 127.089 21.62 128.069 19.87C129.073 18.12 130.041 16.2184 130.974 14.165Z" fill="black" />
  <path d="M142.946 31.525C142.293 31.525 141.71 31.3034 141.196 30.86C140.706 30.4167 140.461 29.6934 140.461 28.69C140.461 28.1534 140.531 27.395 140.671 26.415C140.835 25.435 141.045 24.3734 141.301 23.23C141.558 22.0634 141.838 20.9084 142.141 19.765C142.468 18.6217 142.783 17.6067 143.086 16.72C143.39 15.81 143.658 15.1334 143.891 14.69C144.195 14.1534 144.475 13.8267 144.731 13.71C145.011 13.57 145.28 13.5 145.536 13.5C146.003 13.5 146.435 13.64 146.831 13.92C147.251 14.2 147.461 14.8184 147.461 15.775C147.461 16.1484 147.391 16.755 147.251 17.595C147.111 18.4117 146.936 19.3684 146.726 20.465C146.516 21.5617 146.283 22.6934 146.026 23.86C145.793 25.0267 145.56 26.135 145.326 27.185C145.116 28.2117 144.941 29.075 144.801 29.775C144.685 30.3584 144.44 30.79 144.066 31.07C143.716 31.3734 143.343 31.525 142.946 31.525Z" fill="black" />
  <path d="M158.077 31.98C156.771 31.98 155.639 31.6767 154.682 31.07C153.726 30.4867 152.991 29.7284 152.477 28.795C151.964 27.8384 151.708 26.8584 151.708 25.855C151.708 24.175 151.964 22.6234 152.477 21.2C152.991 19.7534 153.668 18.4467 154.508 17.28C155.348 16.09 156.258 15.04 157.238 14.13C158.241 13.22 159.209 12.4617 160.143 11.855C161.099 11.225 161.951 10.7584 162.697 10.455C163.444 10.1284 163.992 9.96504 164.342 9.96504C164.973 9.96504 165.416 10.105 165.673 10.385C165.952 10.6417 166.092 11.0734 166.092 11.68C166.092 12.03 165.836 12.45 165.322 12.94C164.832 13.43 164.179 13.99 163.363 14.62C162.569 15.25 161.729 15.9617 160.842 16.755C159.956 17.5484 159.104 18.435 158.288 19.415C157.494 20.395 156.841 21.4684 156.327 22.635C155.837 23.8017 155.592 25.0734 155.592 26.45C155.592 26.9634 155.686 27.36 155.872 27.64C156.083 27.92 156.421 28.06 156.887 28.06C158.217 28.06 159.641 27.8267 161.158 27.36C162.697 26.87 164.226 26.2634 165.742 25.54C167.282 24.7934 168.729 24.0234 170.083 23.23C171.459 22.4367 172.637 21.725 173.617 21.095C174.014 20.815 174.353 20.5934 174.633 20.43C174.913 20.2667 175.111 20.185 175.227 20.185C175.927 20.185 176.277 20.5467 176.277 21.27C176.277 21.6434 175.997 22.145 175.438 22.775C174.784 23.5917 173.897 24.4317 172.777 25.295C171.681 26.1584 170.456 26.9867 169.102 27.78C167.772 28.5734 166.408 29.285 165.008 29.915C163.631 30.545 162.336 31.0467 161.122 31.42C159.909 31.7934 158.894 31.98 158.077 31.98Z" fill="black" />
  <path d="M178.179 32.19C176.732 32.19 175.566 31.6884 174.679 30.685C173.792 29.6584 173.349 28.0134 173.349 25.75C173.349 24.3034 173.512 22.8567 173.839 21.41C174.189 19.94 174.667 18.5517 175.274 17.245C175.904 15.915 176.627 14.7367 177.444 13.71C178.284 12.6834 179.206 11.8784 180.209 11.295C181.212 10.6884 182.251 10.385 183.324 10.385C185.144 10.385 186.567 10.875 187.594 11.855C188.621 12.835 189.134 14.0834 189.134 15.6C189.134 16.7667 188.807 17.8284 188.154 18.785C187.524 19.7184 186.661 20.5584 185.564 21.305C184.467 22.0517 183.242 22.7284 181.889 23.335C180.536 23.9417 179.147 24.49 177.724 24.98C177.607 25.82 177.549 26.5667 177.549 27.22C177.549 27.6167 177.771 27.815 178.214 27.815C179.264 27.815 180.384 27.6517 181.574 27.325C182.787 26.975 184.012 26.5317 185.249 25.995C186.486 25.435 187.676 24.8634 188.819 24.28C189.962 23.6734 191.001 23.1017 191.934 22.565C192.891 22.005 193.672 21.5617 194.279 21.235C194.909 20.885 195.317 20.71 195.504 20.71C196.017 20.71 196.391 20.8617 196.624 21.165C196.857 21.4684 196.974 21.795 196.974 22.145C196.974 22.3084 196.659 22.67 196.029 23.23C195.422 23.79 194.582 24.455 193.509 25.225C192.459 25.9717 191.269 26.7534 189.939 27.57C188.632 28.3634 187.267 29.1217 185.844 29.845C184.444 30.545 183.079 31.105 181.749 31.525C180.442 31.9684 179.252 32.19 178.179 32.19ZM178.319 21.865C179.276 21.305 180.221 20.7217 181.154 20.115C182.111 19.485 182.904 18.785 183.534 18.015C184.164 17.2217 184.479 16.3 184.479 15.25C184.479 14.9467 184.397 14.7484 184.234 14.655C184.071 14.5384 183.837 14.48 183.534 14.48C182.717 14.48 181.971 14.8417 181.294 15.565C180.641 16.2884 180.057 17.2217 179.544 18.365C179.054 19.485 178.646 20.6517 178.319 21.865Z" fill="black" />
  <path d="M208.519 5.73004C210.946 5.73004 212.894 6.39504 214.364 7.72504C215.858 9.03171 216.604 10.84 216.604 13.15C216.604 15.4367 215.869 17.1867 214.399 18.4C212.929 19.59 210.981 20.185 208.554 20.185L208.414 22.88H204.109L203.934 16.93H205.509C207.539 16.93 209.103 16.6617 210.199 16.125C211.296 15.5884 211.844 14.6084 211.844 13.185C211.844 12.1584 211.541 11.3417 210.934 10.735C210.351 10.1284 209.546 9.82504 208.519 9.82504C207.446 9.82504 206.606 10.1167 205.999 10.7C205.416 11.2834 205.124 12.0884 205.124 13.115H200.504C200.481 11.6917 200.784 10.42 201.414 9.30005C202.044 8.18004 202.966 7.30504 204.179 6.67504C205.416 6.04504 206.863 5.73004 208.519 5.73004ZM206.244 31.245C205.358 31.245 204.623 30.9767 204.039 30.44C203.479 29.88 203.199 29.1917 203.199 28.375C203.199 27.5584 203.479 26.8817 204.039 26.345C204.623 25.785 205.358 25.505 206.244 25.505C207.108 25.505 207.819 25.785 208.379 26.345C208.939 26.8817 209.219 27.5584 209.219 28.375C209.219 29.1917 208.939 29.88 208.379 30.44C207.819 30.9767 207.108 31.245 206.244 31.245Z" fill="black" />
  <path d="M117.349 41.0001C139.349 37.5001 186.049 41.0001 188.849 45.0001" stroke="black" stroke-width="4" stroke-linecap="round" />
  <g clip-path="url(#clip0_114_16719)">
    <path d="M148.261 1.59592C148.856 1.25387 149.609 1.44106 149.978 2.01045L150.014 2.06875L152.224 5.91235C152.566 6.50713 152.379 7.2609 151.81 7.62954L151.751 7.66509L147.908 9.87551C147.623 10.0394 147.286 10.0877 146.966 10.0106C146.647 9.93347 146.369 9.73676 146.19 9.46098L146.155 9.40268L143.945 5.55907C143.602 4.96429 143.79 4.21053 144.359 3.84189L144.417 3.80634L148.261 1.59592ZM149.495 5.73182C149.375 5.80125 149.287 5.91579 149.25 6.05025C149.214 6.1847 149.233 6.32806 149.302 6.44879C149.371 6.56951 149.486 6.65771 149.62 6.69398C149.755 6.73025 149.898 6.71163 150.019 6.6422C150.14 6.57277 150.228 6.45823 150.264 6.32378C150.3 6.18932 150.282 6.04596 150.212 5.92524C150.143 5.80451 150.028 5.71632 149.894 5.68004C149.76 5.64377 149.616 5.6624 149.495 5.73182ZM147.371 6.95344C147.251 7.02286 147.162 7.1374 147.126 7.27186C147.09 7.40632 147.108 7.54967 147.178 7.6704C147.247 7.79112 147.362 7.87932 147.496 7.91559C147.631 7.95186 147.774 7.93324 147.895 7.86381C148.016 7.79438 148.104 7.67984 148.14 7.54539C148.176 7.41093 148.158 7.26757 148.088 7.14685C148.019 7.02613 147.904 6.93793 147.77 6.90166C147.635 6.86538 147.492 6.88401 147.371 6.95344ZM146.15 4.82923C146.029 4.89865 145.941 5.01319 145.904 5.14765C145.868 5.28211 145.887 5.42547 145.956 5.54619C146.026 5.66691 146.14 5.75511 146.275 5.79138C146.409 5.82766 146.552 5.80903 146.673 5.7396C146.794 5.67018 146.882 5.55564 146.918 5.42118C146.955 5.28672 146.936 5.14336 146.867 5.02264C146.797 4.90192 146.683 4.81372 146.548 4.77745C146.414 4.74117 146.27 4.7598 146.15 4.82923ZM148.274 3.60761C148.153 3.67704 148.065 3.79158 148.029 3.92604C147.992 4.06049 148.011 4.20385 148.08 4.32458C148.15 4.4453 148.264 4.5335 148.399 4.56977C148.533 4.60604 148.677 4.58742 148.797 4.51799C148.918 4.44856 149.006 4.33402 149.043 4.19957C149.079 4.06511 149.06 3.92175 148.991 3.80103C148.921 3.6803 148.807 3.59211 148.672 3.55583C148.538 3.51956 148.395 3.53819 148.274 3.60761Z" fill="black" />
  </g>
  <defs>
    <clipPath id="clip0_114_16719">
      <rect width="8.40147" height="8.40147" fill="white" transform="translate(142.349 4.18835) rotate(-29.9028)" />
    </clipPath>
  </defs>
</svg>