<svg width="26" height="26" viewBox="0 0 26 26" fill="none" xmlns="http://www.w3.org/2000/svg">
<path d="M6.28387 7.40336C7.90403 5.70241 10.2141 5.75556 11.8003 7.1344C12.0657 7.36329 12.4045 7.4892 12.7549 7.4892C13.1054 7.4892 13.4442 7.36329 13.7096 7.1344C15.2947 5.7545 17.6069 5.70347 19.225 7.40336C20.1679 8.60786 20.4964 9.71879 20.4624 10.7383C20.4273 11.7823 20.0095 12.8199 19.3079 13.8447C17.8887 15.9209 15.4552 17.7463 13.4002 19.1953C13.2116 19.3289 12.9861 19.4007 12.7549 19.4007C12.5238 19.4007 12.2983 19.3289 12.1096 19.1953C10.0696 17.7537 7.63613 15.9273 6.21264 13.85C5.50993 12.823 5.08895 11.7833 5.0528 10.7394C5.01559 9.71879 5.34196 8.60679 6.28387 7.40336ZM12.7549 5.85337C10.5597 4.02058 7.31401 3.97593 5.09851 6.33601L5.07513 6.36153L5.05386 6.38811C3.89509 7.85518 3.40606 9.3382 3.45922 10.7957C3.51024 12.2362 4.08644 13.5661 4.89759 14.7504C6.50393 17.0978 9.17124 19.0719 11.189 20.4976C12.1298 21.162 13.379 21.162 14.3198 20.4986C16.3514 19.0656 19.0209 17.0903 20.624 14.7451C21.4341 13.5608 22.0071 12.232 22.056 10.7925C22.1049 9.33608 21.6137 7.85518 20.455 6.38811L20.4337 6.36153L20.4103 6.33601C18.1959 3.97593 14.9481 4.02058 12.7549 5.85337Z" fill="#1E1E1E"/>
</svg>
