<svg width="32" height="11" viewBox="0 0 32 11" fill="none" xmlns="http://www.w3.org/2000/svg">
<path d="M3.05082 7.62113C2.73584 7.30615 2.19727 7.52923 2.19727 7.97468V10.2539H0V3.66211C0 2.65137 0.356445 1.78955 1.06934 1.07666C1.78711 0.358887 2.65137 0 3.66211 0C4.67285 0 5.53467 0.358887 6.24756 1.07666C6.96533 1.78955 7.32422 2.65137 7.32422 3.66211C7.32422 4.67285 6.96777 5.53467 6.25488 6.24756C5.99609 6.50635 5.71777 6.71875 5.41992 6.88477L8.79639 10.2539H5.68359L3.05082 7.62113ZM2.19727 3.66211C2.19727 4.47112 2.8531 5.12695 3.66211 5.12695C4.06738 5.12695 4.41162 4.98535 4.69482 4.70215C4.98291 4.41406 5.12695 4.06738 5.12695 3.66211C5.12695 3.25684 4.98291 2.9126 4.69482 2.62939C4.41162 2.34131 4.06738 2.19727 3.66211 2.19727C3.25684 2.19727 2.91016 2.34131 2.62207 2.62939C2.33887 2.9126 2.19727 3.25684 2.19727 3.66211Z" fill="black"/>
<path d="M18.0322 0V10.2539H15.835V0H18.0322Z" fill="black"/>
<path d="M21.2695 0V10.2539H19.0723V0H21.2695Z" fill="black"/>
<path d="M27.1289 2.92969V10.2539H24.9316V2.92969H27.1289Z" fill="black"/>
<path d="M30.0586 6.5918C30.0586 6.99707 30.2002 7.34375 30.4834 7.63184C30.7715 7.91504 31.1182 8.05664 31.5234 8.05664V10.2539C30.5127 10.2539 29.6484 9.89746 28.9307 9.18457C28.2178 8.4668 27.8613 7.60254 27.8613 6.5918V0H30.0586V2.92969H31.5234V5.12695H30.0586V6.5918Z" fill="black"/>
<path d="M13.4912 4.0312C14.0742 3.95431 14.6104 4.34867 14.7166 4.92019L14.7258 4.97799L15.2227 8.74515C15.2996 9.3281 14.9052 9.86428 14.3337 9.97054L14.2759 9.97967L10.5087 10.4766C10.2295 10.5134 9.94679 10.4418 9.71881 10.2764C9.49084 10.111 9.33498 9.86449 9.28335 9.58762L9.27422 9.52982L8.77729 5.76265C8.70039 5.1797 9.09476 4.64352 9.66627 4.53727L9.72408 4.52813L13.4912 4.0312ZM13.1194 7.71143C13.0011 7.72704 12.8938 7.78901 12.8212 7.88372C12.7486 7.97842 12.7165 8.0981 12.7322 8.21642C12.7478 8.33474 12.8097 8.44202 12.9044 8.51465C12.9991 8.58728 13.1188 8.61931 13.2371 8.6037C13.3555 8.5881 13.4627 8.52612 13.5354 8.43142C13.608 8.33672 13.64 8.21704 13.6244 8.09872C13.6088 7.9804 13.5468 7.87312 13.4521 7.80049C13.3574 7.72786 13.2378 7.69583 13.1194 7.71143ZM11.9411 6.80777C11.8228 6.82337 11.7155 6.88535 11.6429 6.98005C11.5703 7.07475 11.5382 7.19443 11.5539 7.31275C11.5695 7.43107 11.6314 7.53835 11.7261 7.61098C11.8208 7.68361 11.9405 7.71564 12.0588 7.70004C12.1772 7.68443 12.2844 7.62246 12.3571 7.52775C12.4297 7.43305 12.4617 7.31337 12.4461 7.19505C12.4305 7.07673 12.3685 6.96945 12.2738 6.89682C12.1791 6.82419 12.0595 6.79216 11.9411 6.80777ZM10.7628 5.9041C10.6445 5.91971 10.5372 5.98168 10.4646 6.07638C10.392 6.17109 10.3599 6.29076 10.3756 6.40908C10.3912 6.52741 10.4531 6.63468 10.5478 6.70731C10.6425 6.77994 10.7622 6.81198 10.8805 6.79637C10.9989 6.78076 11.1061 6.71879 11.1788 6.62409C11.2514 6.52938 11.2834 6.40971 11.2678 6.29139C11.2522 6.17306 11.1902 6.06579 11.0955 5.99316C11.0008 5.92053 10.8812 5.88849 10.7628 5.9041Z" fill="black"/>
<path d="M25.2222 0.253906H26.7778C26.8367 0.253906 26.8932 0.277319 26.9349 0.318994C26.9766 0.360668 27 0.417191 27 0.476128V2.03168C27 2.09062 26.9766 2.14714 26.9349 2.18882C26.8932 2.23049 26.8367 2.25391 26.7778 2.25391H25.2222C25.1633 2.25391 25.1068 2.23049 25.0651 2.18882C25.0234 2.14714 25 2.09062 25 2.03168V0.476128C25 0.417191 25.0234 0.360668 25.0651 0.318994C25.1068 0.277319 25.1633 0.253906 25.2222 0.253906ZM25.4444 0.476128C25.3855 0.476128 25.329 0.499541 25.2873 0.541216C25.2456 0.582891 25.2222 0.639414 25.2222 0.698351C25.2222 0.757288 25.2456 0.813811 25.2873 0.855485C25.329 0.89716 25.3855 0.920573 25.4444 0.920573C25.5034 0.920573 25.5599 0.89716 25.6016 0.855485C25.6433 0.813811 25.6667 0.757288 25.6667 0.698351C25.6667 0.639414 25.6433 0.582891 25.6016 0.541216C25.5599 0.499541 25.5034 0.476128 25.4444 0.476128ZM26.5556 1.58724C26.4966 1.58724 26.4401 1.61065 26.3984 1.65233C26.3567 1.694 26.3333 1.75052 26.3333 1.80946C26.3333 1.8684 26.3567 1.92492 26.3984 1.9666C26.4401 2.00827 26.4966 2.03168 26.5556 2.03168C26.6145 2.03168 26.671 2.00827 26.7127 1.9666C26.7544 1.92492 26.7778 1.8684 26.7778 1.80946C26.7778 1.75052 26.7544 1.694 26.7127 1.65233C26.671 1.61065 26.6145 1.58724 26.5556 1.58724Z" fill="black"/>
</svg>
