<svg width="66" height="28" viewBox="0 0 66 28" fill="none" xmlns="http://www.w3.org/2000/svg">
  <path fill-rule="evenodd" clip-rule="evenodd" d="M9.52637 0.123004C12.1558 0.123004 14.3984 1.07037 16.2529 2.96578C17.9989 4.72603 18.9276 6.83034 19.041 9.27828L14.8467 10.9482L14.7041 11.0097C13.2981 11.6568 12.6293 13.2982 13.208 14.7529L14.5186 18.0478C14.8789 18.9541 15.1368 19.602 14.8789 18.9541L16.9482 24.1533L17.0098 24.2968C17.3236 24.9778 17.8867 25.5127 18.583 25.791C19.2793 26.0691 20.0562 26.0692 20.7529 25.792L30.1533 22.0527L30.2959 21.9912C31.7019 21.3441 32.3707 19.7027 31.792 18.248L29.2549 11.8711V0.670856H34.9707V23.0771C34.9707 25.2862 33.1798 27.0771 30.9707 27.0771H29.2549L22.02 27.1386L14.7852 27.2002L7.93652 20.248C7.11711 19.4162 5.71582 20.0053 5.71582 21.1816V27.2002H0V9.79293C7.25328e-05 7.12402 0.927749 4.84822 2.78223 2.96578C4.64933 1.07065 6.89728 0.123108 9.52637 0.123004ZM9.52637 5.92476C8.47225 5.92487 7.57063 6.30573 6.82129 7.06636C6.08465 7.81413 5.71589 8.72289 5.71582 9.79293C5.71582 11.9291 7.42196 13.6609 9.52637 13.6611C10.5805 13.6611 11.4762 13.2876 12.2129 12.54C12.9623 11.7793 13.3379 10.8631 13.3379 9.79293C13.3378 8.72287 12.9623 7.81414 12.2129 7.06636C11.4762 6.30571 10.5806 5.92476 9.52637 5.92476Z" fill="black" />
  <path d="M35.7559 0.670856C38.9125 0.67112 41.4717 3.22994 41.4717 6.38668V27.0771H35.7559V0.670856Z" fill="black" />
  <path d="M53.7701 7.94218C53.8381 8.02754 53.8804 8.13423 53.8804 8.25175V27.0926H48.1637V8.25175C48.1637 8.15731 48.1904 8.06929 48.2359 7.99394L51.7486 9.50273L51.8092 9.52714C52.1077 9.63695 52.4379 9.62749 52.7301 9.50175C53.022 9.37598 53.255 9.14343 53.3804 8.85136L53.7701 7.94218Z" fill="black" />
  <path d="M61.6895 7.73633H65.5V13.5391H61.6895V17.4072C61.6896 18.4772 62.0574 19.3927 62.7939 20.1533C63.5434 20.9012 64.4457 21.2754 65.5 21.2754V27.0771C62.8707 27.0771 60.6221 26.1363 58.7549 24.2539C56.9004 22.3586 55.9737 20.0761 55.9736 17.4072V0H61.6895V7.73633Z" fill="black" />
  <path fill-rule="evenodd" clip-rule="evenodd" d="M24.0635 8.18648C25.365 7.66866 26.8342 8.26632 27.4131 9.52437L27.4678 9.6523L30.8135 18.0644C31.3311 19.3659 30.7334 20.8341 29.4756 21.413L29.3477 21.4677L20.9365 24.8144C20.3131 25.0625 19.6182 25.0614 18.9951 24.8125C18.3723 24.5636 17.8687 24.0856 17.5879 23.4765L17.5322 23.3476L14.1865 14.9365C13.6688 13.635 14.2666 12.1669 15.5244 11.5878L15.6523 11.5322L24.0635 8.18648ZM26.1729 16.915C25.9118 16.8026 25.6166 16.7992 25.3525 16.9043C25.0886 17.0093 24.8771 17.2146 24.7646 17.4755C24.6522 17.7366 24.6479 18.0317 24.7529 18.2959C24.858 18.56 25.0641 18.7722 25.3252 18.8847C25.5862 18.997 25.8815 19.0015 26.1455 18.8964C26.4096 18.7913 26.6209 18.5852 26.7334 18.3242C26.8458 18.0631 26.8501 17.768 26.7451 17.5039C26.64 17.2397 26.434 17.0275 26.1729 16.915ZM22.9238 15.5156C22.6628 15.4032 22.3676 15.3988 22.1035 15.5039C21.8394 15.609 21.6281 15.8151 21.5156 16.0761C21.4032 16.3372 21.3989 16.6323 21.5039 16.8964C21.609 17.1606 21.8151 17.3728 22.0762 17.4853C22.3372 17.5976 22.6324 17.6011 22.8965 17.4961C23.1604 17.391 23.3719 17.1856 23.4844 16.9248C23.5968 16.6638 23.601 16.3685 23.4961 16.1045C23.391 15.8403 23.1849 15.6281 22.9238 15.5156ZM19.6748 14.1162C19.4138 14.0038 19.1185 13.9994 18.8545 14.1044C18.5905 14.2096 18.379 14.4157 18.2666 14.6767C18.1542 14.9378 18.1498 15.2329 18.2549 15.497C18.36 15.7612 18.566 15.9724 18.8271 16.0849C19.0883 16.1974 19.3833 16.2017 19.6475 16.0966C19.9116 15.9915 20.1229 15.7855 20.2354 15.5244C20.3477 15.2633 20.3521 14.9682 20.2471 14.7041C20.1419 14.44 19.9358 14.2286 19.6748 14.1162Z" fill="black" />
  <path d="M49.4569 3.04515C49.6683 2.55288 50.2269 2.31681 50.7239 2.49991L50.7735 2.51969L53.9547 3.8859C54.447 4.09731 54.6831 4.65593 54.5 5.15292L54.4803 5.20244L53.1142 8.38364C53.0129 8.61944 52.8251 8.80742 52.5894 8.90886C52.3537 9.0103 52.088 9.01746 51.8472 8.92888L51.7977 8.9091L48.6164 7.54289C48.1241 7.33147 47.888 6.77286 48.0711 6.27586L48.0908 6.22634L49.4569 3.04515ZM52.1654 5.05106C52.1225 5.15098 52.121 5.26385 52.1613 5.36484C52.2016 5.46584 52.2804 5.54669 52.3804 5.5896C52.4803 5.63251 52.5931 5.63397 52.6941 5.59366C52.7951 5.55335 52.876 5.47457 52.9189 5.37465C52.9618 5.27473 52.9632 5.16186 52.9229 5.06087C52.8826 4.95987 52.8038 4.87903 52.7039 4.83612C52.604 4.7932 52.4911 4.79174 52.3901 4.83205C52.2891 4.87236 52.2083 4.95114 52.1654 5.05106ZM50.9088 5.55259C50.8659 5.65251 50.8644 5.76538 50.9048 5.86638C50.9451 5.96737 51.0238 6.04822 51.1238 6.09113C51.2237 6.13405 51.3366 6.13551 51.4376 6.0952C51.5386 6.05489 51.6194 5.97611 51.6623 5.87619C51.7052 5.77627 51.7067 5.6634 51.6664 5.5624C51.626 5.46141 51.5473 5.38056 51.4473 5.33765C51.3474 5.29474 51.2345 5.29328 51.1336 5.33359C51.0326 5.3739 50.9517 5.45268 50.9088 5.55259ZM49.6522 6.05413C49.6093 6.15405 49.6079 6.26692 49.6482 6.36792C49.6885 6.46891 49.7673 6.54976 49.8672 6.59267C49.9671 6.63558 50.08 6.63704 50.181 6.59673C50.282 6.55642 50.3628 6.47764 50.4057 6.37772C50.4486 6.27781 50.4501 6.16493 50.4098 6.06394C50.3695 5.96294 50.2907 5.8821 50.1908 5.83919C50.0908 5.79628 49.978 5.79481 49.877 5.83512C49.776 5.87543 49.6951 5.95421 49.6522 6.05413Z" fill="black" />
  <path d="M51.617 4.88206C51.6431 4.35124 52.0945 3.94205 52.6254 3.96812C53.1562 3.99419 53.5654 4.44564 53.5393 4.97646L53.5321 5.12346C53.506 5.65428 53.0546 6.06346 52.5237 6.03739C51.9929 6.01133 51.5837 5.55988 51.6098 5.02905L51.617 4.88206Z" fill="black" />
  <path d="M48.6409 5.97646C48.667 5.44564 49.1185 5.03646 49.6493 5.06252C50.1801 5.08859 50.5893 5.54004 50.5632 6.07087L50.556 6.21786C50.5299 6.74868 50.0785 7.15787 49.5476 7.1318C49.0168 7.10573 48.6076 6.65428 48.6337 6.12346L48.6409 5.97646Z" fill="black" />
</svg>