<svg width="46" height="6" viewBox="0 0 46 6" fill="none" xmlns="http://www.w3.org/2000/svg">
<path d="M0.75 3.26136C0.78503 3.26136 1.26954 3.23885 3.96215 2.95775C6.19919 2.72421 10.16 2.20518 12.7595 1.92291C15.3589 1.64065 16.4658 1.58508 15.9692 2.06143C14.1314 3.82427 11.0288 4.6578 11.0544 4.73324C11.0778 4.80182 11.5826 4.67958 15.2176 3.99637C18.8526 3.31316 25.7201 2.00818 29.4536 1.31929C33.1871 0.630393 33.5784 0.59713 32.578 1.05598C31.5775 1.51482 29.1733 2.46678 27.8506 3.0008C26.3408 3.61037 26.1003 3.79169 26.0943 3.89639C26.0916 3.94375 26.423 3.88883 28.9553 3.54896C31.4875 3.20909 36.2959 2.56279 39.321 2.19785C42.346 1.83291 43.442 1.76892 44.75 1.70299" stroke="#060606" stroke-width="1.5" stroke-linecap="round"/>
</svg>
